# xmcd
#
# Track frame offsets:
#	150
#	13891
#	27847
#	44605
#	61360
#	79791
#	91037
#	108572
#	124923
#	139512
#	160910
#	175265
#
# Disc length: 2510 seconds
#
# Revision: 0
# Processed by: cddbd v1.5.2PL0 Copyright (c) Steve Scherf et al.
# Submitted via: EasyCDDAExtractor 16.0.9.1
#
DISCID=9a09cc0c
DTITLE=Bona e Silva - Seguindo seus passos
DYEAR=1900
DGENRE=
TTITLE0=Seguindo seus passos
TTITLE1=Telefone mais
TTITLE2=Ei, amor
TTITLE3=Concerto para o verão
TTITLE4=A carta
TTITLE5=Meu sentimento
TTITLE6=Viajante solitário
TTITLE7=Escolta de vagalumes
TTITLE8=Não dá pra esconder
TTITLE9=Êxtase
TTITLE10=Fascinação
TTITLE11=Vento do Araguaia
EXTD=
EXTT0=
EXTT1=
EXTT2=
EXTT3=
EXTT4=
EXTT5=
EXTT6=
EXTT7=
EXTT8=
EXTT9=
EXTT10=
EXTT11=
PLAYORDER=
